<svg xmlns="http://www.w3.org/2000/svg" xmlns:xlink="http://www.w3.org/1999/xlink" version="1.1" x="0px" y="0px" viewBox="0 0 100 125" enable-background="new 0 0 100 100" xml:space="preserve"><path d="M10.5,42.9c0,1,0,2,0,2.9c-1.8,0-3.7,0-5.5,0c0,0.9,0,1.8,0,2.6c1.9,0,3.8,0,5.8,0c0-0.9,0-1.7,0-2.5c5.4,0,9,0,14.4,0  c0.1,0,0.1,0.1,0.3,0.1c0,0.8,0,1.7,0,2.6c1,0,2,0,3.1,0c0,0.9,0,1.8,0,2.7c1,0,2.7,0,2.7,0v3.1h3.1c0,0,0,1.8,0,2.6  c6.8,0,13.6,0,20.4,0c0-0.9,0-1.8,0-2.7c1.1,0,2,0,3,0c0-0.9,0-1.8,0-2.7c0.9,0,1.8,0,2.7,0c0-1.1,0-2,0-3c1.9,0,3.8,0,5.7,0  c0,0.9,0,1.8,0,2.7c1,0,1.8,0,2.7,0c0,1,0,2,0,3c6.8,0,13.6,0,20.4,0c0-1,0-2,0-3.1c1.1,0,2,0,3.1,0c0-0.9,0-1.8,0-2.7  c0.9,0,1.8,0,2.6,0c0-2,0-3.8,0-5.7C66.1,42.9,39.4,42.9,10.5,42.9z M40,54.4h-3v-0.1h0v-2.7h-2.8v-3l-2.9,0v0v-3v0h2.8l0,3.1l1.7,0  l1.1,0l0,3l3,0V54.4z M40,48.6l-3,0l0-3h0h3h0V48.6z M46.1,54.4h-3v0h0v-2.7h-3v-0.4h0l0-2.7h3v0h0.1v2.7h3V54.4z M80.4,51.3  c-0.9,0-1.8,0-2.7,0c0-0.9,0-1.7,0-2.6c-1.1,0-2,0-3,0c0,0.9,0,1.7,0,2.6c-0.9,0-1.8,0-2.8,0c0-0.8,0-1.7,0-2.6c-1,0-2,0-3,0  c0-1.1,0-2,0-3.1c1,0,1.9,0,3,0c0,1,0,2,0,3c0.9,0,1.7,0,2.7,0c0-1,0-2,0-3c1.1,0,2.1,0,3.1,0c0,1,0,2,0,3c0.9,0,1.8,0,2.7,0  C80.4,49.5,80.4,50.4,80.4,51.3z"/><text x="0" y="115" fill="#000000" font-size="5px" font-weight="bold" font-family="'Helvetica Neue', Helvetica, Arial-Unicode, Arial, Sans-serif">Created by J Ray Rivera F</text><text x="0" y="120" fill="#000000" font-size="5px" font-weight="bold" font-family="'Helvetica Neue', Helvetica, Arial-Unicode, Arial, Sans-serif">from the Noun Project</text></svg>