<svg id="_x33_0" enable-background="new 0 0 64 64" height="512" viewBox="0 0 64 64" width="512" xmlns="http://www.w3.org/2000/svg"><g><g><g><path d="m41.95 56.25c-2.34.97-3.88 3.22-3.94 5.75h-.01v-8.6c7.47-2.12 13.33-8.08 15.29-15.61v-.01c1.58-.53 2.71-2.02 2.71-3.78v-4c0-1.81-1.2-3.33-2.84-3.83-2.09-7.31-7.85-13.05-15.16-15.11v-8.77c0 1.29.39 2.53 1.08 3.56s1.68 1.87 2.87 2.36c2.39.98 5.14.44 6.97-1.39l.05-.05 8.49 8.49-.05.04c-1.22 1.22-1.88 2.86-1.88 4.53 0 .82.16 1.65.49 2.44.99 2.4 3.32 3.96 5.91 3.96h.07v12h-.07c-1.29 0-2.53.39-3.55 1.08-1.04.69-1.86 1.67-2.36 2.87-.99 2.39-.44 5.14 1.39 6.97l.05.05-8.49 8.48-.05-.05c-1.22-1.22-2.86-1.87-4.52-1.87-.83 0-1.66.16-2.45.49z" fill="#fcd770"/></g><g><path d="m2 2v60h36v-59.71-.06-.23z" fill="#e6e9ed"/></g><g><path d="m18 44.86v11.14h-12v-12h12z" fill="#fcd770"/></g><g><path d="m18 36v2h-12v-12h12v2l-2 1-3.11 1.55c-.54.28-.89.84-.89 1.45s.35 1.17.89 1.45l3.11 1.55z" fill="#fcd770"/></g><g><path d="m48 26v12h-4v-6-6z" fill="#ffeaa7"/></g><g><path d="m44 32v6h-6-16v-6z" fill="#ff826e"/></g><g><path d="m44 26v6h-22v-6h16z" fill="#b4dd7f"/></g><g><path d="m56 30v4c0 1.76-1.13 3.25-2.71 3.78-.41.14-.84.22-1.29.22h-4v-12h4c.4 0 .79.06 1.16.17 1.64.5 2.84 2.02 2.84 3.83z" fill="#aab2bd"/></g><g><path d="m18 28-2 1-3.11 1.55c-.54.28-.89.84-.89 1.45s.35 1.17.89 1.45l3.11 1.55 2 1 4 2v-6-6z" fill="#aab2bd"/></g><g><path d="m30 12h4v8h-4z" fill="#ff826e"/></g><g><path d="m22 8h4v12h-4z" fill="#ff826e"/></g><g><path d="m14 10h4v10h-4z" fill="#ff826e"/></g><g><path d="m6 14h4v6h-4z" fill="#ff826e"/></g></g><g><path d="m35 11h-6v8h-2v-12h-6v12h-2v-10h-6v10h-2v-6h-6v8h30zm-26 8h-2v-4h2zm14-10h2v10h-2zm-8 2h2v8h-2zm18 8h-2v-6h2z"/><path d="m19.181 41.427-1.102 1.573h-13.079v14h14v-11.828l1.819-2.599zm-2.181 13.573h-10v-10h9.679l-3.815 5.45-2.157-2.157-1.414 1.414 3.843 3.843 3.864-5.521z"/><path d="m21 53h6v2h-6z"/><path d="m29 53h6v2h-6z"/><path d="m21 49h14v2h-14z"/><path d="m21 45h14v2h-14z"/><path d="m62.934 25.226h-1c-2.192 0-4.15-1.31-4.989-3.336-.838-2.023-.378-4.331 1.226-5.935l.693-.707-9.186-9.186-.754-.659-.707.707c-1.549 1.549-3.857 2.009-5.882 1.171s-3.335-2.796-3.335-5.055v-1.226h-38v62h38v-.841c0-2.192 1.31-4.15 3.335-4.989 2.022-.836 4.332-.377 5.929 1.219l.707.707 9.192-9.192.66-.754-.707-.707c-1.55-1.549-2.01-3.857-1.172-5.882s2.796-3.335 5.056-3.335h1v-13zm-45.934 2.156-4.554 2.277c-.891.446-1.446 1.344-1.446 2.341s.555 1.895 1.447 2.342l4.553 2.276v.382h-10v-10h10zm-3.657 5.171c-.212-.106-.343-.318-.343-.553s.131-.447.342-.553l1.658-.829v2.763zm3.657 1.829v-4.763l4-2v8.764zm26-7.382v4h-20v-4zm2 10v-10h2v10zm-22-4h20v4h-20zm16 6h12.879c-2.067 6.059-6.837 10.892-12.879 13.029zm13-2h-3v-10h3c1.654 0 3 1.346 3 3v4c0 1.654-1.346 3-3 3zm-13-12v-12.574c5.869 2.08 10.572 6.728 12.719 12.574zm-36-22h34v22h-15.236l-2.764 1.382v-1.382h-14v14h14v-1.382l2.764 1.382h15.236v22h-34zm58 34.284c-2.618.328-4.876 2.026-5.903 4.512-1.021 2.469-.635 5.245.99 7.355l-7.157 7.157c-2.082-1.617-4.877-2.013-7.359-.986-.999.413-1.864 1.031-2.57 1.785v-2.98c7.306-2.334 13.022-8.228 15.119-15.616 1.695-.8 2.88-2.514 2.88-4.511v-4c0-2.062-1.255-3.834-3.041-4.598-2.218-7.135-7.858-12.808-14.959-15.079v-2.978c.707.754 1.572 1.371 2.57 1.784 2.467 1.021 5.239.636 7.354-.991l7.158 7.159c-1.617 2.081-2.014 4.876-.986 7.358 1.022 2.47 3.26 4.163 5.903 4.506v10.123z"/></g></g></svg>