<svg id="Filled" height="512" viewBox="0 0 512 512" width="512" xmlns="http://www.w3.org/2000/svg"><path d="m320 488h-128l16-96v-32h96v32z" fill="#757c80"/><rect fill="#b5b8b9" height="368" rx="16" width="464" x="24" y="24"/><path d="m40 24h432a16 16 0 0 1 16 16v48a0 0 0 0 1 0 0h-464a0 0 0 0 1 0 0v-48a16 16 0 0 1 16-16z" fill="#2b70a8"/><path d="m24 88h464v224h-464z" fill="#fae8d8"/><path d="m88 152h96v96h-96z" fill="#fcb442"/><path d="m391.964 290.192h32a0 0 0 0 1 0 0v187.549a16 16 0 0 1 -16 16 16 16 0 0 1 -16-16v-187.549a0 0 0 0 1 0 0z" fill="#2b70a8" transform="matrix(.707 -.707 .707 .707 -157.672 403.278)"/><path d="m317.396 270.167h32v94.461h-32z" fill="#fcb442" transform="matrix(.707 -.707 .707 .707 -126.784 328.71)"/><path d="m248 120h208v48h-208z" fill="#fcb442"/><path d="m248 232 12.564 54.443a32 32 0 0 0 23.419 23.849l26.242 6.561 22.628-22.628-6.561-26.242a32 32 0 0 0 -23.849-23.419z" fill="#976048"/><path d="m496 376v-336a24.028 24.028 0 0 0 -24-24h-432a24.028 24.028 0 0 0 -24 24v336a24.028 24.028 0 0 0 24 24h158.556l-13.333 80h-33.223a8 8 0 0 0 0 16h208a8 8 0 0 0 0-16h-33.223l-13.333-80h68.613l69.589 69.589a24 24 0 0 0 33.941 0 24.028 24.028 0 0 0 0-33.941l-35.648-35.648h22.061a24.028 24.028 0 0 0 24-24zm-174.459-59.144 11.313-11.314 33.94 33.94-11.314 11.318zm-13.765-8.862-21.852-5.463a23.893 23.893 0 0 1 -17.565-17.886l-9.686-41.972 41.972 9.686a23.893 23.893 0 0 1 17.886 17.565l5.463 21.852zm32.3-17.855-6.024-24.1a39.825 39.825 0 0 0 -29.812-29.274l-54.44-12.56a8 8 0 0 0 -9.594 9.594l12.564 54.443a40 40 0 0 0 7.545 15.758h-228.315v-208h448v208h-126.061zm-300.076-258.139h432a8.009 8.009 0 0 1 8 8v40h-448v-40a8.009 8.009 0 0 1 8-8zm270.556 448h-109.112l13.333-80h82.446zm-270.556-96a8.009 8.009 0 0 1 -8-8v-56h257.828l16.306 4.076 59.923 59.924zm434.273 74.275a8 8 0 0 1 -11.314 0l-96.165-96.165 11.314-11.31 96.165 96.165a8.01 8.01 0 0 1 0 11.31zm-104.334-138.275h110.061v56a8.009 8.009 0 0 1 -8 8h-38.061z"/><path d="m272 336h-32a8 8 0 0 0 0 16h32a8 8 0 0 0 0-16z"/><circle cx="56" cy="56" r="8"/><circle cx="88" cy="56" r="8"/><circle cx="120" cy="56" r="8"/><path d="m104 128h16a8 8 0 0 0 0-16h-16a8 8 0 0 0 0 16z"/><path d="m152 128h16a8 8 0 0 0 0-16h-16a8 8 0 0 0 0 16z"/><path d="m72 272h-8v-8a8 8 0 0 0 -16 0v16a8 8 0 0 0 8 8h16a8 8 0 0 0 0-16z"/><path d="m120 272h-16a8 8 0 0 0 0 16h16a8 8 0 0 0 0-16z"/><path d="m168 272h-16a8 8 0 0 0 0 16h16a8 8 0 0 0 0-16z"/><path d="m216 112h-16a8 8 0 0 0 0 16h8v8a8 8 0 0 0 16 0v-16a8 8 0 0 0 -8-8z"/><path d="m216 160a8 8 0 0 0 -8 8v16a8 8 0 0 0 16 0v-16a8 8 0 0 0 -8-8z"/><path d="m216 208a8 8 0 0 0 -8 8v16a8 8 0 0 0 16 0v-16a8 8 0 0 0 -8-8z"/><path d="m216 256a8 8 0 0 0 -8 8v8h-8a8 8 0 0 0 0 16h16a8 8 0 0 0 8-8v-16a8 8 0 0 0 -8-8z"/><path d="m56 144a8 8 0 0 0 8-8v-8h8a8 8 0 0 0 0-16h-16a8 8 0 0 0 -8 8v16a8 8 0 0 0 8 8z"/><path d="m56 192a8 8 0 0 0 8-8v-16a8 8 0 0 0 -16 0v16a8 8 0 0 0 8 8z"/><path d="m56 240a8 8 0 0 0 8-8v-16a8 8 0 0 0 -16 0v16a8 8 0 0 0 8 8z"/><path d="m296 192h-48a8 8 0 0 0 0 16h48a8 8 0 0 0 0-16z"/><path d="m456 192h-128a8 8 0 0 0 0 16h128a8 8 0 0 0 0-16z"/><path d="m456 224h-112a8 8 0 0 0 0 16h112a8 8 0 0 0 0-16z"/><path d="m456 112h-208a8 8 0 0 0 -8 8v48a8 8 0 0 0 8 8h208a8 8 0 0 0 8-8v-48a8 8 0 0 0 -8-8zm-8 48h-192v-32h192z"/><path d="m192 152a8 8 0 0 0 -8-8h-96a8 8 0 0 0 -8 8v96a8 8 0 0 0 8 8h96a8 8 0 0 0 8-8zm-16 88h-80v-80h80z"/></svg>