<svg height="511pt" viewBox="0 0 511.996 511" width="511pt" xmlns="http://www.w3.org/2000/svg"><path d="m423.105469 446.089844h-393.117188c-12.417969 0-22.484375-10.066406-22.484375-22.488282v-393.113281c0-12.421875 10.066406-22.488281 22.484375-22.488281h393.117188c12.417969 0 22.488281 10.066406 22.488281 22.488281v393.113281c0 12.421876-10.070312 22.488282-22.488281 22.488282zm0 0" fill="#e7e7e7"/><path d="m445.59375 30.484375v393.121094c0 12.417969-10.066406 22.484375-22.492188 22.484375h-27.246093c12.429687 0 22.496093-10.066406 22.496093-22.484375v-393.121094c0-12.417969-10.066406-22.480469-22.496093-22.480469h27.246093c12.425782-.003906 22.492188 10.0625 22.492188 22.480469zm0 0" fill="#cecece"/><path d="m445.59375 84.71875h-438.09375v-54.230469c0-12.421875 10.070312-22.488281 22.488281-22.488281h393.117188c12.417969 0 22.484375 10.066406 22.484375 22.488281v54.230469zm0 0" fill="#64dcfc"/><path d="m445.59375 30.484375v54.234375h-27.242188v-54.234375c0-12.417969-10.066406-22.480469-22.496093-22.480469h27.246093c12.425782-.003906 22.492188 10.0625 22.492188 22.480469zm0 0" fill="#00d1fc"/><path d="m59.714844 47.488281c0 8.015625-6.496094 14.511719-14.511719 14.511719s-14.515625-6.496094-14.515625-14.511719 6.5-14.511719 14.515625-14.511719 14.511719 6.496094 14.511719 14.511719zm0 0" fill="#ff6b81"/><path d="m115.765625 47.488281c0 8.015625-6.5 14.511719-14.515625 14.511719s-14.511719-6.496094-14.511719-14.511719 6.496094-14.511719 14.511719-14.511719 14.515625 6.496094 14.515625 14.511719zm0 0" fill="#ffd86e"/><path d="m171.8125 47.488281c0 8.015625-6.496094 14.511719-14.511719 14.511719s-14.511719-6.496094-14.511719-14.511719 6.496094-14.511719 14.511719-14.511719 14.511719 6.496094 14.511719 14.511719zm0 0" fill="#80e0dc"/><path d="m59.710938 47.492188c0 8.011718-6.492188 14.503906-14.503907 14.503906-3.878906 0-7.410156-1.519532-10.011719-4.011719 7.851563-.167969 14.171876-6.589844 14.171876-14.492187 0-4.140626-1.730469-7.859376-4.5-10.5.109374-.011719.230468-.011719.339843-.011719 8.011719 0 14.503907 6.492187 14.503907 14.511719zm0 0" fill="#ff435f"/><path d="m115.761719 47.492188c0 8.011718-6.492188 14.503906-14.511719 14.503906-3.882812 0-7.402344-1.519532-10.011719-4.011719 7.859375-.167969 14.179688-6.589844 14.179688-14.492187 0-4.140626-1.730469-7.859376-4.5-10.5.109375-.011719.222656-.011719.332031-.011719 8.019531 0 14.511719 6.492187 14.511719 14.511719zm0 0" fill="#ffb509"/><path d="m171.8125 47.492188c0 8.011718-6.5 14.503906-14.511719 14.503906-3.882812 0-7.402343-1.519532-10.011719-4.011719 7.859376-.167969 14.171876-6.589844 14.171876-14.492187 0-4.140626-1.730469-7.859376-4.5-10.5.109374-.011719.230468-.011719.339843-.011719 8.011719 0 14.511719 6.492187 14.511719 14.511719zm0 0" fill="#00a8b0"/><path d="m154.941406 363.847656h-83.9375c-8.003906 0-14.488281-6.488281-14.488281-14.488281v-74.546875c0-8 6.484375-14.488281 14.488281-14.488281h83.9375c8 0 14.488282 6.488281 14.488282 14.488281v74.546875c0 8-6.488282 14.488281-14.488282 14.488281zm0 0" fill="#80e0dc"/><path d="m169.429688 274.816406v74.546875c0 8-6.492188 14.480469-14.492188 14.480469h-21.527344c8 0 14.484375-6.480469 14.484375-14.480469v-74.546875c0-8-6.484375-14.492187-14.484375-14.492187h21.527344c8 0 14.492188 6.492187 14.492188 14.492187zm0 0" fill="#00a8b0"/><path d="m270.902344 271.0625v188.097656c0 20.953125 17.042968 38 37.996094 38h4.070312c20.953125 0 38-17.046875 38-38v-188.097656zm0 0"/><path d="m312.96875 504.660156h-4.070312c-25.128907 0-45.5-20.371094-45.5-45.503906v-189.53125c0-3.347656 2.714843-6.0625 6.0625-6.0625h82.949218c3.347656 0 6.058594 2.714844 6.058594 6.0625v189.535156c.003906 25.128906-20.367188 45.5-45.5 45.5zm0 0" fill="#e7e7e7"/><path d="m358.472656 343.828125h-95.074218v-74.203125c0-3.347656 2.714843-6.0625 6.0625-6.0625h82.949218c3.347656 0 6.0625 2.714844 6.0625 6.0625zm0 0" fill="#83e5eb"/><path d="m358.472656 343.828125h-16.851562v-80.265625h10.789062c3.347656 0 6.0625 2.714844 6.0625 6.0625zm0 0" fill="#5cdae2"/><path d="m263.398438 344.128906h95.074218v80.265625h-95.074218zm0 0" fill="#80e0dc"/><path d="m341.617188 344.128906h16.855468v80.265625h-16.855468zm0 0" fill="#00a8b0"/><path d="m279.601562 491.332031-2.875-2.875c-17.769531-17.769531-17.769531-46.582031 0-64.351562l134.019532-134.019531c2.367187-2.367188 6.207031-2.367188 8.574218 0l58.652344 58.652343c2.367188 2.367188 2.367188 6.207031 0 8.574219l-134.019531 134.019531c-17.769531 17.769531-46.582031 17.769531-64.351563 0zm0 0" fill="#e7e7e7"/><path d="m425.503906 409.78125-67.226562-67.226562 52.46875-52.46875c2.367187-2.367188 6.207031-2.367188 8.574218 0l58.652344 58.652343c2.367188 2.367188 2.367188 6.207031 0 8.574219zm0 0" fill="#ffe1a8"/><path d="m425.503906 409.78125-11.917968-11.914062 56.757812-56.757813 7.628906 7.628906c2.367188 2.367188 2.367188 6.207031 0 8.574219zm0 0" fill="#ffd98f"/><path d="m358.066406 342.761719 67.226563 67.226562-56.757813 56.757813-67.226562-67.226563zm0 0" fill="#ffd86e"/><path d="m413.375 398.070312 11.917969 11.917969-56.757813 56.757813-11.914062-11.917969zm0 0" fill="#ffb509"/><path d="m263.398438 459.15625v-4.066406c0-25.132813 20.371093-45.503906 45.503906-45.503906h189.535156c3.347656 0 6.0625 2.714843 6.0625 6.0625v82.949218c0 3.347656-2.714844 6.0625-6.0625 6.0625h-189.539062c-25.128907 0-45.5-20.371094-45.5-45.503906zm0 0" fill="#e7e7e7"/><path d="m424.230469 504.660156v-95.074218h74.203125c3.351562 0 6.0625 2.714843 6.0625 6.0625v82.949218c0 3.347656-2.714844 6.0625-6.0625 6.0625zm0 0" fill="#ff9aa9"/><path d="m424.230469 504.660156v-16.851562h80.265625v10.789062c0 3.347656-2.714844 6.0625-6.0625 6.0625zm0 0" fill="#ff7a8e"/><path d="m343.664062 409.585938h80.269532v95.074218h-80.269532zm0 0" fill="#ff6b81"/><path d="m343.664062 487.808594h80.269532v16.851562h-80.269532zm0 0" fill="#ff435f"/><path d="m318.347656 457.125c0 8.691406-7.046875 15.738281-15.742187 15.738281-8.691407 0-15.738281-7.046875-15.738281-15.738281 0-8.695312 7.046874-15.742188 15.738281-15.742188 8.695312 0 15.742187 7.046876 15.742187 15.742188zm0 0" fill="#838383"/><path d="m232.996094 319.808594h-26.410156c-4.140626 0-7.5 3.359375-7.5 7.503906s3.359374 7.5 7.5 7.5h26.410156c4.140625 0 7.5-3.355469 7.5-7.5s-3.359375-7.503906-7.5-7.503906zm0 0"/><path d="m231.578125 367.863281c4.144531 0 7.5-3.355469 7.5-7.5s-3.355469-7.503906-7.5-7.503906h-24.992187c-4.140626 0-7.5 3.359375-7.5 7.503906s3.359374 7.5 7.5 7.5zm0 0"/><path d="m45.203125 25.472656c-12.140625 0-22.015625 9.878906-22.015625 22.015625 0 12.140625 9.875 22.015625 22.015625 22.015625 12.136719 0 22.011719-9.875 22.011719-22.015625 0-12.136719-9.875-22.015625-22.011719-22.015625zm0 29.027344c-3.867187 0-7.011719-3.148438-7.011719-7.011719 0-3.867187 3.144532-7.011719 7.011719-7.011719 3.863281 0 7.011719 3.144532 7.011719 7.011719 0 3.863281-3.144532 7.011719-7.011719 7.011719zm0 0"/><path d="m101.25 25.472656c-12.136719 0-22.015625 9.878906-22.015625 22.015625 0 12.140625 9.878906 22.015625 22.015625 22.015625 12.140625 0 22.015625-9.875 22.015625-22.015625 0-12.136719-9.875-22.015625-22.015625-22.015625zm0 29.027344c-3.863281 0-7.011719-3.148438-7.011719-7.011719 0-3.867187 3.148438-7.011719 7.011719-7.011719 3.867188 0 7.011719 3.144532 7.011719 7.011719 0 3.863281-3.144531 7.011719-7.011719 7.011719zm0 0"/><path d="m157.300781 25.472656c-12.140625 0-22.015625 9.878906-22.015625 22.015625 0 12.140625 9.875 22.015625 22.015625 22.015625 12.136719 0 22.015625-9.875 22.015625-22.015625 0-12.136719-9.878906-22.015625-22.015625-22.015625zm0 29.027344c-3.867187 0-7.011719-3.148438-7.011719-7.011719 0-3.867187 3.144532-7.011719 7.011719-7.011719 3.867188 0 7.011719 3.144532 7.011719 7.011719 0 3.863281-3.144531 7.011719-7.011719 7.011719zm0 0"/><path d="m154.941406 252.820312h-83.941406c-12.121094 0-21.988281 9.867188-21.988281 21.992188v74.546875c0 12.125 9.867187 21.988281 21.988281 21.988281h83.941406c12.121094 0 21.988282-9.863281 21.988282-21.988281v-74.546875c0-12.125-9.867188-21.992188-21.988282-21.992188zm-4.558594 15.003907-37.414062 33.113281-37.410156-33.113281zm-86.367187 76.441406v-66.621094l37.636719 33.308594zm8.988281 12.078125 39.96875-35.371094 39.964844 35.371094zm88.921875-12.078125-37.636719-33.3125 37.636719-33.308594zm0 0"/><path d="m240.027344 256.351562h-33.441406c-4.140626 0-7.5 3.359376-7.5 7.503907s3.359374 7.5 7.5 7.5h33.441406c4.144531 0 7.5-3.355469 7.5-7.5s-3.359375-7.503907-7.5-7.503907zm0 0"/><path d="m383.796875 271.355469h20.75c4.144531 0 7.5-3.355469 7.5-7.5s-3.355469-7.503907-7.5-7.503907h-20.75c-4.140625 0-7.5 3.359376-7.5 7.503907s3.359375 7.5 7.5 7.5zm0 0"/><path d="m247.527344 296.90625c0-4.144531-3.355469-7.503906-7.5-7.503906h-33.441406c-4.140626 0-7.5 3.359375-7.5 7.503906s3.359374 7.5 7.5 7.5h33.441406c4.140625 0 7.5-3.359375 7.5-7.5zm0 0"/><path d="m209.773438 151.238281h21.804687c4.144531 0 7.5-3.355469 7.5-7.5s-3.355469-7.5-7.5-7.5h-21.804687c-4.140626 0-7.5 3.355469-7.5 7.5s3.359374 7.5 7.5 7.5zm0 0"/><path d="m396.511719 143.738281c0-4.144531-3.355469-7.5-7.5-7.5h-133.019531c-4.144532 0-7.5 3.355469-7.5 7.5s3.355468 7.5 7.5 7.5h133.019531c4.140625 0 7.5-3.355469 7.5-7.5zm0 0"/><path d="m320.160156 190.078125h48.644532c4.144531 0 7.503906-3.359375 7.503906-7.5 0-4.144531-3.359375-7.503906-7.503906-7.503906h-48.644532c-4.144531 0-7.5 3.359375-7.5 7.503906 0 4.140625 3.355469 7.5 7.5 7.5zm0 0"/><path d="m279.554688 175.074219c-4.140626 0-7.5 3.359375-7.5 7.503906 0 4.140625 3.359374 7.5 7.5 7.5h15.164062c4.144531 0 7.503906-3.359375 7.503906-7.5 0-4.144531-3.359375-7.503906-7.503906-7.503906zm0 0"/><path d="m262.652344 182.578125c0-4.144531-3.355469-7.503906-7.5-7.503906h-45.375c-4.144532 0-7.503906 3.359375-7.503906 7.503906 0 4.140625 3.359374 7.5 7.503906 7.5h45.375c4.140625 0 7.5-3.359375 7.5-7.5zm0 0"/><path d="m67.878906 156.058594v-10.589844c0-3.59375 1.324219-7.09375 4.570313-8.933594 1.210937-.6875 2.503906-1.007812 3.832031-1.140625 3.808594-.382812 6.761719-3.480469 6.761719-7.308593v-.355469c0-4.046875-3.28125-7.328125-7.332031-7.328125h-.410157c-9.015625.289062-22.425781 7.199218-22.425781 25.066406v6.589844l-7.15625 4.8125c-3.503906 2.351562-5.277344 6.621094-4.308594 10.90625.589844 2.625 2.277344 4.878906 4.511719 6.378906l6.953125 4.671875v6.59375c0 17.863281 13.410156 24.777344 22.425781 25.066406.082031.003907.164063.003907.246094.003907 4.03125 0 7.359375-3.203126 7.492187-7.261719.132813-4.140625-3.117187-7.605469-7.257812-7.738281-.019531 0-2.082031-.191407-3.984375-1.324219-1.679687-1-3.917969-2.996094-3.917969-8.746094v-10.589844c0-2.5-1.242187-4.835937-3.316406-6.226562l-4.703125-3.160157 4.703125-3.15625c2.074219-1.398437 3.316406-3.734374 3.316406-6.230468zm0 0"/><path d="m89.214844 193.367188c-1.980469 0-3.910156-.800782-5.3125-2.191407-1.390625-1.398437-2.199219-3.332031-2.199219-5.3125 0-1.519531.425781-2.878906 1.269531-4.160156.269532-.410156.589844-.800781.929688-1.136719 1.402344-1.402344 3.332031-2.203125 5.3125-2.203125 1.972656 0 3.902344.800781 5.300781 2.203125 1.359375 1.355469 2.203125 3.382813 2.203125 5.300782 0 1.976562-.800781 3.910156-2.203125 5.308593-1.398437 1.390625-3.328125 2.191407-5.300781 2.191407zm0 0"/><path d="m185.804688 156.871094-7.15625-4.8125v-6.589844c0-17.867188-13.410157-24.78125-22.425782-25.066406h-.410156c-4.050781 0-7.332031 3.28125-7.332031 7.328125v.355469c0 3.828124 2.953125 6.925781 6.761719 7.308593 1.328124.132813 2.621093.453125 3.832031 1.140625 3.246093 1.839844 4.570312 5.339844 4.570312 8.933594v10.589844c0 2.496094 1.242188 4.832031 3.316407 6.226562l4.703124 3.160156-4.703124 3.15625c-2.070313 1.394532-3.316407 3.730469-3.316407 6.226563v10.589844c0 5.75-2.234375 7.746093-3.917969 8.746093-1.902343 1.132813-3.964843 1.324219-3.984374 1.328126-4.140626.132812-7.390626 3.59375-7.253907 7.738281.128907 4.058593 3.460938 7.257812 7.492188 7.257812.082031 0 .160156 0 .242187-.003906 9.015625-.285156 22.425782-7.199219 22.425782-25.066406v-6.589844l6.957031-4.675781c2.234375-1.5 3.917969-3.75 4.507812-6.378906.96875-4.28125-.804687-8.554688-4.308593-10.902344zm0 0"/><path d="m121.164062 181.710938c-1.09375-1.617188-2.804687-2.792969-4.761718-3.199219-.972656-.199219-1.972656-.199219-2.933594 0-.480469.09375-.957031.242187-1.410156.433593-1.308594.550782-2.585938 1.585938-3.359375 2.757813-1.90625 2.902344-1.546875 7 .929687 9.472656.804688.804688 1.40625 1.1875 2.429688 1.621094 1.234375.519531 2.640625.613281 3.953125.425781.695312-.097656 1.382812-.273437 2.03125-.550781 3.160156-1.355469 4.859375-4.949219 4.238281-8.265625-.175781-.945312-.578125-1.902344-1.117188-2.695312zm0 0"/><path d="m146.851562 181.726562c-1.378906-2.003906-3.695312-3.363281-6.195312-3.363281-1.980469 0-3.910156.800781-5.3125 2.199219-.738281.742188-1.214844 1.464844-1.621094 2.433594-1.132812 2.742187-.5 6.070312 1.621094 8.179687 1.398438 1.390625 3.332031 2.191407 5.3125 2.191407 1.96875 0 3.902344-.800782 5.300781-2.191407 2.550781-2.535156 2.902344-6.523437.894531-9.449219zm0 0"/><path d="m165.980469 438.589844h-135.992188c-8.261719 0-14.984375-6.722656-14.984375-14.988282v-331.378906h423.089844v65.753906c0 4.144532 3.355469 7.503907 7.5 7.503907s7.5-3.359375 7.5-7.503907v-127.488281c0-16.539062-13.453125-29.992187-29.988281-29.992187h-393.117188c-16.535156 0-29.988281 13.453125-29.988281 29.992187v393.113281c0 16.535157 13.453125 29.988282 29.988281 29.988282h135.992188c4.144531 0 7.503906-3.355469 7.503906-7.5 0-4.144532-3.359375-7.5-7.503906-7.5zm-150.976563-408.101563c0-8.265625 6.722656-14.988281 14.984375-14.988281h393.117188c8.261719 0 14.984375 6.722656 14.984375 14.988281v46.730469h-423.085938zm0 0"/><path d="m498.433594 402.085938h-54.625l39.46875-39.46875c5.289062-5.289063 5.289062-13.894532 0-19.183594l-30.183594-30.183594v-108.429688c0-4.144531-3.355469-7.503906-7.5-7.503906s-7.5 3.359375-7.5 7.503906v93.425782l-13.46875-13.46875c-5.289062-5.28125-13.894531-5.285156-19.183594.003906l-39.46875 39.46875v-54.625c0-7.480469-6.085937-13.566406-13.5625-13.566406h-82.949218c-7.480469 0-13.566407 6.085937-13.566407 13.566406v74.203125c0 .050781.007813.097656.007813.148437 0 .050782-.007813.097657-.007813.148438v94.460938h-42.90625c-4.140625 0-7.5 3.359374-7.5 7.503906 0 4.140625 3.359375 7.5 7.5 7.5h42.90625v1.496094c0 15.019531 3.75 28.886718 14.195313 40.128906 9.652344 10.382812 23.292968 16.574218 37.472656 16.929687.445312.007813.890625.015625 1.335938.015625h115.03125c.050781 0 .097656-.007812.148437-.007812s.097656.007812.148437.007812h74.203126c7.480468 0 13.566406-6.085937 13.566406-13.5625v-82.949218c.003906-7.476563-6.082032-13.5625-13.5625-13.5625zm-227.53125-131.023438h80.070312v65.265625h-80.070312zm0 80.566406h67.691406l-60.046875 60.050782c-2.242187 1.570312-4.339844 3.324218-6.308594 5.210937h-1.335937zm65.261718 145.53125h-27.265624c-20.953126 0-37.996094-17.046875-37.996094-38v-4.070312c0-20.953125 17.042968-38 37.996094-38h27.265624zm-21.6875-95.074218-2.558593-2.5625 46.148437-46.148438 48.707032 48.710938zm101.953126 95.074218h-65.261719v-80.070312h65.261719zm-47.542969-154.605468 46.148437-46.148438 56.617188 56.617188-46.148438 46.148437zm128.109375 154.605468h-65.261719v-80.070312h65.261719zm0 0"/><path d="m279.367188 457.125c0 12.8125 10.425781 23.242188 23.238281 23.242188 12.816406 0 23.242187-10.429688 23.242187-23.242188 0-12.816406-10.425781-23.242188-23.242187-23.242188-12.8125 0-23.238281 10.425782-23.238281 23.242188zm31.480468 0c0 4.542969-3.699218 8.238281-8.242187 8.238281s-8.234375-3.695312-8.234375-8.238281 3.691406-8.238281 8.234375-8.238281 8.242187 3.695312 8.242187 8.238281zm0 0"/></svg>