<svg width="621" height="798" viewBox="0 0 621 798" fill="none" xmlns="http://www.w3.org/2000/svg">
  <g filter="url(#filter0_dddddddd_1308_2499)">
    <path
      fill-rule="evenodd"
      clip-rule="evenodd"
      d="M220.767 9.93828C178.023 28.1245 80.33 121.752 80 195.531C80.5755 271.804 178.023 362.94 220.767 381.126C230.568 385.294 245.777 391.062 261.839 391.062C276.487 391.062 288.89 383.834 301.51 368.655C322.723 343.136 320.17 306.445 291.9 285.621C258.07 260.717 230.382 238.363 229.805 195.531C230.382 152.702 258.07 122.808 291.9 97.9008C320.17 77.0795 325.676 45.4955 304.464 19.9773C291.846 4.79771 276.485 0 261.839 0C245.774 0 230.568 5.76876 220.767 9.93828Z"
      fill="#122645"
    />
    <path
      fill-rule="evenodd"
      clip-rule="evenodd"
      d="M220.767 9.93828C178.023 28.1245 80.33 121.752 80 195.531C80.5755 271.804 178.023 362.94 220.767 381.126C230.568 385.294 245.777 391.062 261.839 391.062C276.487 391.062 288.89 383.834 301.51 368.655C322.723 343.136 320.17 306.445 291.9 285.621C258.07 260.717 230.382 238.363 229.805 195.531C230.382 152.702 258.07 122.808 291.9 97.9008C320.17 77.0795 325.676 45.4955 304.464 19.9773C291.846 4.79771 276.485 0 261.839 0C245.774 0 230.568 5.76876 220.767 9.93828Z"
      fill="url(#paint0_linear_1308_2499)"
      fill-opacity="0.7"
    />
    <path
      fill-rule="evenodd"
      clip-rule="evenodd"
      d="M220.767 9.93828C178.023 28.1245 80.33 121.752 80 195.531C80.5755 271.804 178.023 362.94 220.767 381.126C230.568 385.294 245.777 391.062 261.839 391.062C276.487 391.062 288.89 383.834 301.51 368.655C322.723 343.136 320.17 306.445 291.9 285.621C258.07 260.717 230.382 238.363 229.805 195.531C230.382 152.702 258.07 122.808 291.9 97.9008C320.17 77.0795 325.676 45.4955 304.464 19.9773C291.846 4.79771 276.485 0 261.839 0C245.774 0 230.568 5.76876 220.767 9.93828Z"
      fill="url(#paint1_radial_1308_2499)"
    />
    <path
      fill-rule="evenodd"
      clip-rule="evenodd"
      d="M302.571 368.978C321.332 347.639 321.876 305.951 292.429 285.617C251.152 257.115 230.082 229.943 230.329 195.121C230.609 155.635 255.738 130.91 262.001 123.205C168.273 228.433 155.291 347.327 246.031 389.212C266.793 396.43 286.361 387.416 302.571 368.978Z"
      fill="url(#paint2_linear_1308_2499)"
    />
  </g>
  <g filter="url(#filter1_ddddddd_1308_2499)">
    <g filter="url(#filter2_i_1308_2499)">
      <path
        fill-rule="evenodd"
        clip-rule="evenodd"
        d="M360.038 510.805C345.462 510.805 330.174 506.01 317.616 490.839C296.504 465.335 302.021 433.773 330.157 412.963C363.826 388.07 391.346 358.188 391.92 315.383C391.346 272.575 363.791 244.145 330.157 219.126C305.325 200.655 296.504 165.428 317.616 139.924C330.176 124.753 345.46 119.96 360.038 119.96C376.024 119.96 391.16 125.726 400.915 129.891C443.456 148.067 540.251 238.926 541 315.383C540.76 387.447 443.456 482.696 400.915 500.872C391.16 505.04 376.027 510.805 360.038 510.805Z"
        fill="#182440"
      />
      <path
        fill-rule="evenodd"
        clip-rule="evenodd"
        d="M360.038 510.805C345.462 510.805 330.174 506.01 317.616 490.839C296.504 465.335 302.021 433.773 330.157 412.963C363.826 388.07 391.346 358.188 391.92 315.383C391.346 272.575 363.791 244.145 330.157 219.126C305.325 200.655 296.504 165.428 317.616 139.924C330.176 124.753 345.46 119.96 360.038 119.96C376.024 119.96 391.16 125.726 400.915 129.891C443.456 148.067 540.251 238.926 541 315.383C540.76 387.447 443.456 482.696 400.915 500.872C391.16 505.04 376.027 510.805 360.038 510.805Z"
        fill="url(#paint3_radial_1308_2499)"
      />
    </g>
    <path
      fill-rule="evenodd"
      clip-rule="evenodd"
      d="M316.355 139.93C297.498 161.269 300.696 199.567 330.294 219.901C371.781 248.404 391.561 281.083 391.312 315.904C391.031 355.391 365.774 380.116 359.479 387.82C457.381 315.904 466.733 163.698 375.53 121.814C354.662 114.595 332.648 121.492 316.355 139.93Z"
      fill="url(#paint4_linear_1308_2499)"
    />
  </g>
  <defs>
    <filter
      id="filter0_dddddddd_1308_2499"
      x="0"
      y="0"
      width="397.354"
      height="797.7"
      filterUnits="userSpaceOnUse"
      color-interpolation-filters="sRGB"
    >
      <feFlood flood-opacity="0" result="BackgroundImageFix" />
      <feColorMatrix
        in="SourceAlpha"
        type="matrix"
        values="0 0 0 0 0 0 0 0 0 0 0 0 0 0 0 0 0 0 127 0"
        result="hardAlpha"
      />
      <feOffset dy="6.49797" />
      <feGaussianBlur stdDeviation="0.797297" />
      <feColorMatrix type="matrix" values="0 0 0 0 0.0784314 0 0 0 0 0.0862745 0 0 0 0 0.133333 0 0 0 0.0742969 0" />
      <feBlend mode="normal" in2="BackgroundImageFix" result="effect1_dropShadow_1308_2499" />
      <feColorMatrix
        in="SourceAlpha"
        type="matrix"
        values="0 0 0 0 0 0 0 0 0 0 0 0 0 0 0 0 0 0 127 0"
        result="hardAlpha"
      />
      <feOffset dy="14.7639" />
      <feGaussianBlur stdDeviation="1.81152" />
      <feColorMatrix type="matrix" values="0 0 0 0 0.0784314 0 0 0 0 0.0862745 0 0 0 0 0.133333 0 0 0 0.108007 0" />
      <feBlend mode="normal" in2="effect1_dropShadow_1308_2499" result="effect2_dropShadow_1308_2499" />
      <feColorMatrix
        in="SourceAlpha"
        type="matrix"
        values="0 0 0 0 0 0 0 0 0 0 0 0 0 0 0 0 0 0 127 0"
        result="hardAlpha"
      />
      <feOffset dy="25.6959" />
      <feGaussianBlur stdDeviation="3.15287" />
      <feColorMatrix type="matrix" values="0 0 0 0 0.0784314 0 0 0 0 0.0862745 0 0 0 0 0.133333 0 0 0 0.133023 0" />
      <feBlend mode="normal" in2="effect2_dropShadow_1308_2499" result="effect3_dropShadow_1308_2499" />
      <feColorMatrix
        in="SourceAlpha"
        type="matrix"
        values="0 0 0 0 0 0 0 0 0 0 0 0 0 0 0 0 0 0 127 0"
        result="hardAlpha"
      />
      <feOffset dy="40.8203" />
      <feGaussianBlur stdDeviation="5.00862" />
      <feColorMatrix type="matrix" values="0 0 0 0 0.0784314 0 0 0 0 0.0862745 0 0 0 0 0.133333 0 0 0 0.155 0" />
      <feBlend mode="normal" in2="effect3_dropShadow_1308_2499" result="effect4_dropShadow_1308_2499" />
      <feColorMatrix
        in="SourceAlpha"
        type="matrix"
        values="0 0 0 0 0 0 0 0 0 0 0 0 0 0 0 0 0 0 127 0"
        result="hardAlpha"
      />
      <feOffset dy="62.9826" />
      <feGaussianBlur stdDeviation="7.72793" />
      <feColorMatrix type="matrix" values="0 0 0 0 0.0784314 0 0 0 0 0.0862745 0 0 0 0 0.133333 0 0 0 0.176977 0" />
      <feBlend mode="normal" in2="effect4_dropShadow_1308_2499" result="effect5_dropShadow_1308_2499" />
      <feColorMatrix
        in="SourceAlpha"
        type="matrix"
        values="0 0 0 0 0 0 0 0 0 0 0 0 0 0 0 0 0 0 127 0"
        result="hardAlpha"
      />
      <feOffset dy="98.2795" />
      <feGaussianBlur stdDeviation="12.0588" />
      <feColorMatrix type="matrix" values="0 0 0 0 0.0784314 0 0 0 0 0.0862745 0 0 0 0 0.133333 0 0 0 0.201993 0" />
      <feBlend mode="normal" in2="effect5_dropShadow_1308_2499" result="effect6_dropShadow_1308_2499" />
      <feColorMatrix
        in="SourceAlpha"
        type="matrix"
        values="0 0 0 0 0 0 0 0 0 0 0 0 0 0 0 0 0 0 127 0"
        result="hardAlpha"
      />
      <feOffset dy="163.159" />
      <feGaussianBlur stdDeviation="20.0195" />
      <feColorMatrix type="matrix" values="0 0 0 0 0.0784314 0 0 0 0 0.0862745 0 0 0 0 0.133333 0 0 0 0.235703 0" />
      <feBlend mode="normal" in2="effect6_dropShadow_1308_2499" result="effect7_dropShadow_1308_2499" />
      <feColorMatrix
        in="SourceAlpha"
        type="matrix"
        values="0 0 0 0 0 0 0 0 0 0 0 0 0 0 0 0 0 0 127 0"
        result="hardAlpha"
      />
      <feOffset dy="326" />
      <feGaussianBlur stdDeviation="40" />
      <feColorMatrix type="matrix" values="0 0 0 0 0.0784314 0 0 0 0 0.0862745 0 0 0 0 0.133333 0 0 0 0.31 0" />
      <feBlend mode="normal" in2="effect7_dropShadow_1308_2499" result="effect8_dropShadow_1308_2499" />
      <feBlend mode="normal" in="SourceGraphic" in2="effect8_dropShadow_1308_2499" result="shape" />
    </filter>
    <filter
      id="filter1_ddddddd_1308_2499"
      x="224.582"
      y="119"
      width="396.418"
      height="647.805"
      filterUnits="userSpaceOnUse"
      color-interpolation-filters="sRGB"
    >
      <feFlood flood-opacity="0" result="BackgroundImageFix" />
      <feColorMatrix
        in="SourceAlpha"
        type="matrix"
        values="0 0 0 0 0 0 0 0 0 0 0 0 0 0 0 0 0 0 127 0"
        result="hardAlpha"
      />
      <feOffset dy="4.07831" />
      <feGaussianBlur stdDeviation="0.926888" />
      <feColorMatrix type="matrix" values="0 0 0 0 0.0470588 0 0 0 0 0.0509804 0 0 0 0 0.0980392 0 0 0 0.0594147 0" />
      <feBlend mode="normal" in2="BackgroundImageFix" result="effect1_dropShadow_1308_2499" />
      <feColorMatrix
        in="SourceAlpha"
        type="matrix"
        values="0 0 0 0 0 0 0 0 0 0 0 0 0 0 0 0 0 0 127 0"
        result="hardAlpha"
      />
      <feOffset dy="9.48239" />
      <feGaussianBlur stdDeviation="2.15509" />
      <feColorMatrix type="matrix" values="0 0 0 0 0.0470588 0 0 0 0 0.0509804 0 0 0 0 0.0980392 0 0 0 0.0858404 0" />
      <feBlend mode="normal" in2="effect1_dropShadow_1308_2499" result="effect2_dropShadow_1308_2499" />
      <feColorMatrix
        in="SourceAlpha"
        type="matrix"
        values="0 0 0 0 0 0 0 0 0 0 0 0 0 0 0 0 0 0 127 0"
        result="hardAlpha"
      />
      <feOffset dy="17.0282" />
      <feGaussianBlur stdDeviation="3.87004" />
      <feColorMatrix type="matrix" values="0 0 0 0 0.0470588 0 0 0 0 0.0509804 0 0 0 0 0.0980392 0 0 0 0.105812 0" />
      <feBlend mode="normal" in2="effect2_dropShadow_1308_2499" result="effect3_dropShadow_1308_2499" />
      <feColorMatrix
        in="SourceAlpha"
        type="matrix"
        values="0 0 0 0 0 0 0 0 0 0 0 0 0 0 0 0 0 0 127 0"
        result="hardAlpha"
      />
      <feOffset dy="28.2605" />
      <feGaussianBlur stdDeviation="6.42283" />
      <feColorMatrix type="matrix" values="0 0 0 0 0.0470588 0 0 0 0 0.0509804 0 0 0 0 0.0980392 0 0 0 0.124188 0" />
      <feBlend mode="normal" in2="effect3_dropShadow_1308_2499" result="effect4_dropShadow_1308_2499" />
      <feColorMatrix
        in="SourceAlpha"
        type="matrix"
        values="0 0 0 0 0 0 0 0 0 0 0 0 0 0 0 0 0 0 127 0"
        result="hardAlpha"
      />
      <feOffset dy="46.5581" />
      <feGaussianBlur stdDeviation="10.5814" />
      <feColorMatrix type="matrix" values="0 0 0 0 0.0470588 0 0 0 0 0.0509804 0 0 0 0 0.0980392 0 0 0 0.14416 0" />
      <feBlend mode="normal" in2="effect4_dropShadow_1308_2499" result="effect5_dropShadow_1308_2499" />
      <feColorMatrix
        in="SourceAlpha"
        type="matrix"
        values="0 0 0 0 0 0 0 0 0 0 0 0 0 0 0 0 0 0 127 0"
        result="hardAlpha"
      />
      <feOffset dy="81.3701" />
      <feGaussianBlur stdDeviation="18.4932" />
      <feColorMatrix type="matrix" values="0 0 0 0 0.0470588 0 0 0 0 0.0509804 0 0 0 0 0.0980392 0 0 0 0.170585 0" />
      <feBlend mode="normal" in2="effect5_dropShadow_1308_2499" result="effect6_dropShadow_1308_2499" />
      <feColorMatrix
        in="SourceAlpha"
        type="matrix"
        values="0 0 0 0 0 0 0 0 0 0 0 0 0 0 0 0 0 0 127 0"
        result="hardAlpha"
      />
      <feOffset dy="176" />
      <feGaussianBlur stdDeviation="40" />
      <feColorMatrix type="matrix" values="0 0 0 0 0.0470588 0 0 0 0 0.0509804 0 0 0 0 0.0980392 0 0 0 0.23 0" />
      <feBlend mode="normal" in2="effect6_dropShadow_1308_2499" result="effect7_dropShadow_1308_2499" />
      <feBlend mode="normal" in="SourceGraphic" in2="effect7_dropShadow_1308_2499" result="shape" />
    </filter>
    <filter
      id="filter2_i_1308_2499"
      x="294.801"
      y="119.96"
      width="246.199"
      height="414.845"
      filterUnits="userSpaceOnUse"
      color-interpolation-filters="sRGB"
    >
      <feFlood flood-opacity="0" result="BackgroundImageFix" />
      <feBlend mode="normal" in="SourceGraphic" in2="BackgroundImageFix" result="shape" />
      <feColorMatrix
        in="SourceAlpha"
        type="matrix"
        values="0 0 0 0 0 0 0 0 0 0 0 0 0 0 0 0 0 0 127 0"
        result="hardAlpha"
      />
      <feOffset dx="-10" dy="24" />
      <feGaussianBlur stdDeviation="17" />
      <feComposite in2="hardAlpha" operator="arithmetic" k2="-1" k3="1" />
      <feColorMatrix type="matrix" values="0 0 0 0 0.109804 0 0 0 0 0.278431 0 0 0 0 0.513726 0 0 0 0.2 0" />
      <feBlend mode="normal" in2="shape" result="effect1_innerShadow_1308_2499" />
    </filter>
    <linearGradient id="paint0_linear_1308_2499" x1="34.5" y1="77" x2="122" y2="348" gradientUnits="userSpaceOnUse">
      <stop stop-color="#00FFD1" />
      <stop offset="1" stop-color="#162546" stop-opacity="0" />
    </linearGradient>
    <radialGradient
      id="paint1_radial_1308_2499"
      cx="0"
      cy="0"
      r="1"
      gradientUnits="userSpaceOnUse"
      gradientTransform="translate(-162.344 201.429) rotate(-14.0854) scale(388.01 835.715)"
    >
      <stop stop-color="#3AB38B" />
      <stop offset="1" stop-color="#1B2439" stop-opacity="0" />
    </radialGradient>
    <linearGradient
      id="paint2_linear_1308_2499"
      x1="301.136"
      y1="391.377"
      x2="212.544"
      y2="279.234"
      gradientUnits="userSpaceOnUse"
    >
      <stop stop-color="#1C2F54" />
      <stop offset="1" stop-color="#111D2E" />
    </linearGradient>
    <radialGradient
      id="paint3_radial_1308_2499"
      cx="0"
      cy="0"
      r="1"
      gradientUnits="userSpaceOnUse"
      gradientTransform="translate(645 507) rotate(-131.03) scale(551.453 767.488)"
    >
      <stop stop-color="#FF2953" />
      <stop offset="1" stop-color="#1B2439" stop-opacity="0" />
    </radialGradient>
    <linearGradient
      id="paint4_linear_1308_2499"
      x1="319.519"
      y1="119.324"
      x2="407.793"
      y2="233.318"
      gradientUnits="userSpaceOnUse"
    >
      <stop stop-color="#1C274B" />
      <stop offset="1" stop-color="#10172E" />
    </linearGradient>
  </defs>
</svg>
