<?xml version="1.0" encoding="iso-8859-1"?>
<!-- Generator: Adobe Illustrator 19.0.0, SVG Export Plug-In . SVG Version: 6.00 Build 0)  -->
<svg version="1.1" id="Capa_1" xmlns="http://www.w3.org/2000/svg" xmlns:xlink="http://www.w3.org/1999/xlink" x="0px" y="0px"
	 viewBox="0 0 512.002 512.002" style="enable-background:new 0 0 512.002 512.002;" xml:space="preserve">
<rect x="10" y="20.249" style="fill:#E3E3E3;" width="492" height="102.86"/>
<circle style="fill:#54E3E3;" cx="432.71" cy="67.839" r="21.947"/>
<path d="M348.541,99.781c-0.65,0-1.31-0.061-1.96-0.19c-0.63-0.13-1.26-0.32-1.87-0.57c-0.6-0.25-1.18-0.56-1.72-0.92
	c-0.55-0.359-1.06-0.78-1.53-1.24c-0.46-0.46-0.87-0.979-1.24-1.52c-0.36-0.55-0.67-1.13-0.92-1.73c-0.25-0.6-0.44-1.229-0.57-1.869
	c-0.13-0.65-0.19-1.301-0.19-1.95c0-0.66,0.06-1.311,0.19-1.96c0.13-0.641,0.32-1.271,0.57-1.87c0.25-0.601,0.56-1.19,0.92-1.73
	c0.37-0.54,0.78-1.06,1.24-1.52c0.47-0.46,0.98-0.88,1.53-1.24c0.54-0.36,1.12-0.67,1.72-0.92s1.23-0.44,1.87-0.57
	c1.29-0.26,2.62-0.26,3.91,0c0.64,0.13,1.27,0.32,1.87,0.57c0.61,0.25,1.19,0.56,1.73,0.92c0.55,0.36,1.06,0.78,1.52,1.24
	s0.88,0.979,1.24,1.52c0.36,0.54,0.67,1.13,0.92,1.73c0.25,0.6,0.44,1.229,0.57,1.87c0.13,0.649,0.2,1.3,0.2,1.96
	c0,2.63-1.07,5.2-2.93,7.069c-0.46,0.46-0.97,0.881-1.52,1.24c-0.54,0.36-1.13,0.67-1.73,0.92s-1.23,0.44-1.87,0.57
	S349.191,99.781,348.541,99.781z"/>
<path d="M310.628,99.786H102.794c-5.523,0-10-4.478-10-10s4.477-10,10-10h207.833c5.523,0,10,4.478,10,10
	S316.151,99.786,310.628,99.786z"/>
<rect x="11.181" y="157.36" style="fill:#54E3E3;" width="303.64" height="197.2"/>
<circle style="fill:#FFDE85;" cx="137.65" cy="214.2" r="25.353"/>
<path d="M137.648,249.552c-19.494,0-35.353-15.859-35.353-35.353s15.859-35.353,35.353-35.353s35.353,15.859,35.353,35.353
	S157.142,249.552,137.648,249.552z M137.648,198.847c-8.465,0-15.353,6.887-15.353,15.353s6.887,15.353,15.353,15.353
	s15.353-6.887,15.353-15.353S146.114,198.847,137.648,198.847z"/>
<polygon style="fill:#E3E3E3;" points="218.863,231.82 182.468,280.347 255.257,280.347 "/>
<polygon style="fill:#5E6E82;" points="182.468,280.347 126.806,354.562 310.923,354.562 255.257,280.347 "/>
<polygon style="fill:#0088BB;" points="94.091,263.076 15.075,354.562 126.806,354.562 148.321,325.875 "/>
<path d="M502.002,10.249H10c-5.523,0-10,4.478-10,10v102.859c0,5.522,4.477,10,10,10h492.002c5.523,0,10-4.478,10-10V20.249
	C512.002,14.727,507.525,10.249,502.002,10.249z M492.002,113.108H20V30.249h472.002V113.108z"/>
<path d="M432.713,99.786c5.083,0,9.98-1.188,14.388-3.416l8.167,8.167c1.953,1.952,4.512,2.929,7.071,2.929s5.119-0.977,7.071-2.929
	c3.905-3.905,3.905-10.237,0-14.143l-8.167-8.167c2.229-4.408,3.416-9.306,3.416-14.388c0-8.533-3.323-16.557-9.357-22.591l0,0
	c-12.456-12.455-32.723-12.456-45.18,0c-6.034,6.034-9.357,14.058-9.357,22.591s3.324,16.557,9.357,22.59
	C416.157,96.463,424.18,99.786,432.713,99.786z M424.265,59.391c2.329-2.329,5.389-3.493,8.448-3.493s6.119,1.164,8.448,3.493
	c2.256,2.257,3.5,5.257,3.5,8.448s-1.243,6.191-3.5,8.447c-2.256,2.257-5.256,3.5-8.448,3.5s-6.191-1.243-8.448-3.5
	c-2.256-2.257-3.5-5.256-3.5-8.447S422.009,61.647,424.265,59.391z"/>
<path d="M314.821,147.364H11.181c-5.523,0-10,4.478-10,10v197.199c0,5.522,4.477,10,10,10h303.64c5.523,0,10-4.478,10-10V157.364
	C324.821,151.842,320.344,147.364,314.821,147.364z M121.806,344.562H36.925l57.165-66.186l41.4,47.94L121.806,344.562z
	 M146.806,344.562l18.646-24.86l0,0l0,0h48.489c5.523,0,10-4.478,10-10s-4.477-10-10-10h-33.488l7.016-9.354h62.789l40.665,54.215
	H146.806V344.562z M202.468,270.347l16.395-21.859l16.395,21.859H202.468z M304.821,329.76L304.821,329.76l-77.958-103.94
	c-1.889-2.518-4.853-4-8-4s-6.111,1.482-8,4l-63.09,84.119l0,0l-46.114-53.4c-1.899-2.199-4.662-3.464-7.568-3.464l0,0
	c-2.906,0-5.668,1.265-7.568,3.464l-65.342,75.653V167.364h283.64V329.76z"/>
<rect x="348.31" y="157.36" style="fill:#B3B3B3;" width="153.69" height="197.2"/>
<path d="M502.002,364.563h-153.69c-5.523,0-10-4.478-10-10V157.364c0-5.522,4.477-10,10-10h153.69c5.523,0,10,4.478,10,10v197.199
	C512.002,360.086,507.525,364.563,502.002,364.563z M358.312,344.563h133.69V167.364h-133.69V344.563z"/>
<path d="M468.719,203.835h-87.124c-5.523,0-10-4.478-10-10s4.477-10,10-10h87.124c5.523,0,10,4.478,10,10
	S474.242,203.835,468.719,203.835z"/>
<path d="M468.719,243.969h-87.124c-5.523,0-10-4.478-10-10s4.477-10,10-10h87.124c5.523,0,10,4.478,10,10
	S474.242,243.969,468.719,243.969z"/>
<path d="M468.719,284.103h-87.124c-5.523,0-10-4.478-10-10s4.477-10,10-10h87.124c5.523,0,10,4.478,10,10
	S474.242,284.103,468.719,284.103z"/>
<path d="M381.601,324.241c-0.66,0-1.31-0.07-1.96-0.2c-0.64-0.13-1.27-0.32-1.87-0.57s-1.18-0.56-1.73-0.92
	c-0.54-0.36-1.06-0.78-1.52-1.24s-0.88-0.979-1.24-1.52c-0.36-0.55-0.67-1.13-0.92-1.73s-0.44-1.229-0.57-1.87
	c-0.13-0.649-0.2-1.3-0.2-1.96c0-0.649,0.07-1.3,0.2-1.949c0.13-0.641,0.32-1.271,0.57-1.87c0.25-0.601,0.56-1.181,0.92-1.73
	c0.36-0.54,0.78-1.06,1.24-1.52s0.98-0.88,1.52-1.24c0.55-0.36,1.13-0.67,1.73-0.92s1.23-0.44,1.87-0.57
	c3.25-0.66,6.7,0.41,9.02,2.73c0.47,0.46,0.88,0.979,1.25,1.52c0.36,0.55,0.67,1.13,0.92,1.73s0.44,1.229,0.57,1.87
	c0.13,0.649,0.19,1.3,0.19,1.949c0,0.66-0.06,1.311-0.19,1.96c-0.13,0.641-0.32,1.271-0.57,1.87c-0.25,0.601-0.56,1.181-0.92,1.73
	c-0.37,0.54-0.79,1.06-1.25,1.52C386.801,323.171,384.231,324.241,381.601,324.241z"/>
<path d="M468.719,324.236h-49.214c-5.523,0-10-4.478-10-10s4.477-10,10-10h49.214c5.523,0,10,4.478,10,10
	S474.242,324.236,468.719,324.236z"/>
<rect x="11.181" y="388.75" style="fill:#E3E3E3;" width="153.69" height="103"/>
<path d="M164.871,501.753H11.181c-5.523,0-10-4.478-10-10V388.751c0-5.522,4.477-10,10-10h153.69c5.523,0,10,4.478,10,10v103.002
	C174.871,497.275,170.394,501.753,164.871,501.753z M21.181,481.753h133.69v-83.002H21.181V481.753z"/>
<rect x="199.73" y="388.75" style="fill:#54E3E3;" width="302.27" height="103"/>
<path d="M502.002,501.753H199.728c-5.523,0-10-4.478-10-10V388.751c0-5.522,4.477-10,10-10h302.274c5.523,0,10,4.478,10,10v103.002
	C512.002,497.275,507.525,501.753,502.002,501.753z M209.728,481.753h282.274v-83.002H209.728V481.753z"/>
<path d="M245.481,450.251c-2.63,0-5.21-1.07-7.07-2.931c-0.46-0.46-0.88-0.97-1.25-1.52c-0.36-0.54-0.67-1.12-0.92-1.72
	c-0.25-0.61-0.44-1.24-0.57-1.88c-0.13-0.641-0.19-1.301-0.19-1.95c0-0.65,0.06-1.311,0.19-1.95s0.32-1.27,0.57-1.87
	c0.25-0.61,0.56-1.189,0.92-1.729c0.37-0.551,0.79-1.061,1.25-1.521s0.97-0.88,1.52-1.24c0.54-0.359,1.12-0.67,1.72-0.92
	c0.61-0.25,1.24-0.45,1.87-0.58c1.29-0.25,2.62-0.25,3.91,0c0.64,0.13,1.27,0.33,1.87,0.58c0.61,0.25,1.19,0.561,1.73,0.92
	c0.55,0.36,1.06,0.78,1.52,1.24s0.88,0.97,1.24,1.521c0.36,0.54,0.67,1.119,0.92,1.729c0.25,0.601,0.44,1.23,0.57,1.87
	s0.2,1.3,0.2,1.95c0,0.649-0.07,1.31-0.2,1.95c-0.13,0.64-0.32,1.27-0.57,1.88c-0.25,0.6-0.56,1.18-0.92,1.72
	c-0.36,0.55-0.78,1.06-1.24,1.52c-0.46,0.461-0.97,0.881-1.52,1.24c-0.54,0.37-1.12,0.67-1.73,0.92c-0.6,0.25-1.23,0.45-1.87,0.58
	C246.791,450.19,246.131,450.251,245.481,450.251z"/>
<path d="M451.318,450.252h-167.93c-5.523,0-10-4.478-10-10s4.477-10,10-10h167.93c5.523,0,10,4.478,10,10
	S456.841,450.252,451.318,450.252z"/>
<g>
</g>
<g>
</g>
<g>
</g>
<g>
</g>
<g>
</g>
<g>
</g>
<g>
</g>
<g>
</g>
<g>
</g>
<g>
</g>
<g>
</g>
<g>
</g>
<g>
</g>
<g>
</g>
<g>
</g>
</svg>
