<svg id="Capa_1" enable-background="new 0 0 512 512" height="512" viewBox="0 0 512 512" width="512" xmlns="http://www.w3.org/2000/svg"><g><g><g><path d="m482.854 317.87h-27.203v-126.841c0-6.665-5.626-12.088-12.541-12.088h-374.22c-6.915 0-12.541 5.423-12.541 12.088v126.841h-27.203v-126.841c0-21.665 17.829-39.291 39.744-39.291h374.22c21.915 0 39.744 17.626 39.744 39.291z" fill="#986b54"/></g></g><g><path d="m176.52 140.125h53.936v187.553h-53.936z" fill="#ade092"/></g><g><path d="m230.456 140.472c0-5.209-1.062-10.363-3.121-15.147l-19.13-44.446c-1.361-3.162-5.818-3.237-7.284-.122l-20.75 44.068c-2.404 5.105-3.65 10.678-3.65 16.321v9.294c4.734-.251 8.954-2.431 11.895-5.767.678-.77 1.883-.77 2.561 0 3.13 3.55 7.708 5.792 12.813 5.792s9.684-2.242 12.813-5.792c.678-.77 1.883-.77 2.561 0 2.815 3.193 6.804 5.322 11.292 5.719z" fill="#ecbe6b"/></g><g><path d="m200.92 80.756-17.382 36.916h40.503l-15.837-36.793c-1.361-3.162-5.817-3.237-7.284-.123z" fill="#ade092"/></g><g><path d="m211.478 140.125v.347 187.206h18.978v-187.553z" fill="#6dd4a1"/></g><g><path d="m227.335 125.325-19.13-44.446c-1.361-3.162-5.817-3.237-7.284-.122l-6.137 13.033 13.573 31.535c2.014 4.678 3.066 9.71 3.113 14.8h.009v.347 8.143c1.949-.987 3.694-2.318 5.125-3.942.678-.77 1.883-.77 2.561 0 2.815 3.193 6.804 5.322 11.292 5.719v-9.92c-.001-5.209-1.063-10.363-3.122-15.147z" fill="#e7a561"/></g><g><path d="m205.063 117.672h18.978l-15.837-36.793c-1.361-3.162-5.817-3.237-7.284-.122l-6.137 13.034z" fill="#6dd4a1"/></g><g><path d="m374.438 223.381h40.804v40h-40.804z" fill="#dae4ea" transform="matrix(.707 .707 -.707 .707 287.742 -207.91)"/></g><g><path d="m377.741 229.984h20.188v40.804h-20.188z" fill="#b9c1cb" transform="matrix(.707 -.707 .707 .707 -63.455 347.577)"/></g><g><g><path d="m443.11 151.737h-12.569c21.915 0 39.744 17.626 39.744 39.291v126.842h12.569v-126.841c0-21.665-17.829-39.292-39.744-39.292z" fill="#845c52"/></g></g><g><path d="m71.23 106.75 59.688 206.767-57.425 16.577-59.688-206.767c-1.072-3.714 1.07-7.595 4.784-8.667l43.974-12.694c3.714-1.072 7.595 1.07 8.667 4.784z" fill="#ecbe6b"/></g><g><path d="m111.803 319.035 19.115-5.518-59.688-206.767c-1.072-3.714-4.953-5.856-8.667-4.784l-12.39 3.577z" fill="#e7a561"/></g><g><path d="m114.458 98.068h29.004v105.003h-29.004z" fill="#dae4ea"/></g><g><path d="m128.96 98.068h14.502v105.003h-14.502z" fill="#b9c1cb"/></g><g><path d="m165.39 299.539c0-17.976-3.522-34.36-9.307-46.763-2.182-4.679-3.351-9.762-3.351-14.925v-44.529c0-2.683-2.175-4.858-4.858-4.858h-37.829c-2.683 0-4.858 2.175-4.858 4.858v44.529c0 5.163-1.169 10.246-3.351 14.925-5.784 12.403-9.307 28.787-9.307 46.762s3.522 34.36 9.307 46.762c2.182 4.679 3.351 9.762 3.351 14.925v37.105h47.545v-37.105c0-5.163 1.169-10.246 3.351-14.925 5.785-12.401 9.307-28.785 9.307-46.761z" fill="#057096"/></g><g><path d="m156.083 252.777c-2.182-4.679-3.351-9.762-3.351-14.925v-44.529c0-2.683-2.175-4.858-4.858-4.858h-21.328c2.683 0 4.858 2.175 4.858 4.858v44.529c0 5.163 1.169 10.246 3.351 14.925 5.784 12.403 9.307 28.787 9.307 46.762 0 17.976-3.522 34.36-9.307 46.762-2.182 4.679-3.351 9.762-3.351 14.925v37.105h21.328v-37.105c0-5.163 1.169-10.246 3.351-14.925 5.784-12.403 9.307-28.787 9.307-46.762 0-17.976-3.522-34.36-9.307-46.762z" fill="#055e7f"/></g><g><path d="m136.391 35.779h-15.263c-2.673 0-5.023 1.768-5.765 4.336l-10.412 36.069c-.314 1.087-.314 2.241 0 3.328l10.412 36.069c.741 2.568 3.092 4.336 5.765 4.336h15.263c2.673 0 5.023-1.768 5.765-4.336l10.412-36.069c.314-1.087.314-2.241 0-3.328l-10.412-36.069c-.742-2.568-3.092-4.336-5.765-4.336z" fill="#f6f9f9"/></g><path d="m152.568 76.184-10.412-36.069c-.741-2.568-3.092-4.336-5.765-4.336h-15.263c-.571 0-1.121.096-1.65.248 1.948.559 3.532 2.069 4.115 4.088l10.412 36.069c.314 1.087.314 2.241 0 3.328l-10.412 36.069c-.583 2.02-2.167 3.529-4.115 4.088.529.152 1.079.248 1.65.248h15.263c2.673 0 5.023-1.768 5.765-4.336l10.412-36.069c.313-1.087.313-2.241 0-3.328z" fill="#dae4ea"/><g><path d="m238.421 170.869h50.701v238.469h-50.701z" fill="#055e7f" transform="matrix(.707 .707 -.707 .707 282.391 -101.545)"/></g><g><path d="m155.296 290.729h238.469v20.269h-238.469z" fill="#004c67" transform="matrix(.707 -.707 .707 .707 -132.334 282.243)"/></g><g><path d="m417.16 194.338-68.79-68.79c-19.606-19.606-48.543-26.577-74.926-18.05l-20.441 6.606c-2.969.96-2.963 5.162.009 6.113l26.192 8.38c12.067 3.861 23.037 10.549 31.996 19.508l8.856 8.856c1.518 1.518 1.518 3.978 0 5.496l-31.881 31.881c-3.794 3.794-3.794 9.946 0 13.74l57.623 57.623c3.794 3.794 9.945 3.794 13.74 0l57.623-57.623c3.793-3.794 3.793-9.946-.001-13.74z" fill="#dae4ea"/></g><g><g><path d="m409.131 186.31-49.594 49.594c-3.794 3.794-9.945 3.794-13.74 0l-49.594-49.594-8.028 8.028c-3.794 3.794-3.794 9.946 0 13.74l57.623 57.623c3.794 3.794 9.945 3.794 13.74 0l57.623-57.623c3.794-3.794 3.794-9.946 0-13.74z" fill="#b9c1cb"/></g></g><g><path d="m430.562 324.123-37.909-37.909c-3.905-3.905-3.905-10.237 0-14.142l30.877-30.877c3.905-3.905 10.237-3.905 14.142 0l37.909 37.909c3.905 3.905 3.905 10.237 0 14.142l-30.877 30.877c-3.905 3.905-10.237 3.905-14.142 0z" fill="#dae4ea"/></g><path d="m468.213 271.734-23.509 23.509c-3.905 3.905-10.237 3.905-14.142 0l-30.54-30.54-7.369 7.369c-3.905 3.905-3.905 10.237 0 14.142l37.909 37.909c3.905 3.905 10.237 3.905 14.142 0l30.877-30.878c3.905-3.905 3.905-10.237 0-14.142z" fill="#b9c1cb"/><g><path d="m489.713 476.22h-467.426c-8.284 0-15-6.716-15-15v-147.353c0-8.284 6.716-15 15-15h467.427c8.284 0 15 6.716 15 15v147.353c-.001 8.285-6.716 15-15.001 15z" fill="#986b54"/></g><g><path d="m489.713 298.867h-24.336v123.445c0 8.048-6.525 14.573-14.573 14.573h-443.517v24.336c0 8.284 6.716 15 15 15h467.427c8.284 0 15-6.716 15-15v-147.354c-.001-8.285-6.716-15-15.001-15z" fill="#845c52"/></g><g><ellipse cx="256" cy="387.544" fill="#f9ef63" rx="111.605" ry="45.284"/></g><g><path d="m312.988 348.604c16.255 7.867 26.048 18.006 26.048 29.075 0 25.01-49.967 45.284-111.605 45.284-20.821 0-40.307-2.316-56.988-6.344 20.473 9.908 51.199 16.209 85.558 16.209 61.638 0 111.605-20.274 111.605-45.284-.001-16.562-21.916-31.044-54.618-38.94z" fill="#f4dd45"/></g><g><path d="m490.14 291.58v-100.551c0-25.683-21.098-46.578-47.03-46.578h-65.532l-24.055-24.055c-21.649-21.647-53.193-29.243-82.32-19.831l-20.442 6.607c-4.354 1.408-7.275 5.429-7.268 10.005s2.941 8.586 7.298 9.981l26.193 8.38c6.5 2.079 12.691 5.101 18.35 8.913h-57.591c.24-7.502-.628-15.097-3.715-22.007l-19.131-44.447c-3.452-8.775-16.895-9.041-20.569-.345l-20.749 44.067c-3.385 7.028-4.613 14.97-4.345 22.731h-18.485v-32.367l8.833-30.598c.687-2.38.687-4.895 0-7.276l-10.462-36.238c-1.611-5.581-6.793-9.478-12.602-9.478h-15.518c-5.809 0-10.991 3.898-12.601 9.478l-10.462 36.239c-.687 2.381-.687 4.897 0 7.275l9.257 32.069c-.01.154-.023.307-.023.463v30.434h-17.474l-11.522-39.914c-2.154-7.464-9.981-11.778-17.442-9.627l-44.356 12.805c-3.615 1.044-6.608 3.433-8.426 6.727-1.819 3.294-2.246 7.1-1.202 10.714l16.182 56.057c-.699 3.215-1.072 6.505-1.072 9.816v100.551c-12.053 0-21.859 9.807-21.859 21.86v148.208c0 12.053 9.806 21.86 21.86 21.86h143.521c4.024 0 7.287-3.262 7.287-7.287s-3.262-7.287-7.287-7.287h-143.521c-4.018 0-7.287-3.268-7.287-7.287v-13.58h365.055c4.025 0 7.287-3.262 7.287-7.287s-3.262-7.287-7.287-7.287h-64.597c8.13-1.979 15.728-4.381 22.625-7.179 9.979-4.049 18.088-8.796 24.166-14.054h135.604v21.233h-83.534c-4.025 0-7.287 3.262-7.287 7.287s3.262 7.287 7.287 7.287h83.534v13.58c0 4.018-3.268 7.287-7.287 7.287h-290.303c-4.024 0-7.287 3.262-7.287 7.287s3.262 7.287 7.287 7.287h290.304c12.053 0 21.86-9.806 21.86-21.86v-148.208c0-12.053-9.806-21.86-21.86-21.86zm-129.438 70.302c-5.942-4.883-13.667-9.305-23.046-13.111-8.037-3.261-17.031-5.979-26.704-8.121h186.474v21.232zm-156.302-271.41 8.571 19.914h-17.948zm14.844 34.487c1.959 4.24 3.665 8.839 3.862 13.523-1.51-1.078-3.334-1.672-5.223-1.672-2.581 0-5.04 1.11-6.747 3.046-1.862 2.112-4.54 3.324-7.347 3.324s-5.485-1.212-7.348-3.324c-1.706-1.935-4.165-3.045-6.747-3.045-2.14 0-4.195.763-5.808 2.126.266-4.898 2.069-9.646 4.274-13.977h31.084zm93.254 34.751-11.944 11.944h-62.811v-12.63h74.069zm-29.476 53.521 5.733 5.733-51.012 51.012v-83.749h48.237l-2.958 2.958c-6.629 6.63-6.629 17.416 0 24.046zm-113.788 55.753c-1.64-6.964-3.839-13.48-6.547-19.287-1.771-3.797-2.668-7.782-2.668-11.845v-44.528c0-2.65-.863-5.097-2.309-7.096h11.524zm-33.058-87.805h-14.431v-53.975h14.431zm-27.735 74.677c2.676-5.739 4.033-11.797 4.033-18.005v-42.1h32.972v42.1c0 6.208 1.357 12.265 4.034 18.005 4.631 9.93 7.538 22.428 8.371 35.724h-57.781c.833-13.297 3.74-25.794 8.371-35.724zm75.366-99.519c2.096-.746 4.079-1.775 5.898-3.073 4.083 2.893 8.997 4.488 14.084 4.488 5.09 0 10.006-1.596 14.089-4.491 1.64 1.166 3.419 2.112 5.291 2.837v128.452l-7.031 7.031h-32.332v-135.244zm53.936 134.249 61.317-61.317 25.545 25.545-36.765 36.766h-50.098v-.994zm97.168-25.466 5.733 5.733c6.329 6.595 17.717 6.595 24.046 0l9.517-9.517 10.011 10.01c-3.295 6.398-2.272 14.463 3.082 19.818l.415.415h-79.263zm87.401-75.935-2.958-2.958h23.756c2.898 0 5.254 2.154 5.254 4.802v50.551l-5.74-5.74c-3.212-3.211-7.481-4.979-12.022-4.979-2.76 0-5.415.662-7.798 1.895l-10.009-10.009 9.516-9.516c6.596-6.329 6.596-17.717.001-24.046zm-19.821 43.867 9.278 9.277-17.98 17.979-9.277-9.277zm5.833 58.528-10.72-10.719c-.947-.948-.947-2.489-.001-3.435l31.282-31.28c.947-.948 2.487-.946 3.434 0l38.311 38.311c.948.947.948 2.488 0 3.435l-3.687 3.688zm34.786-132.556c17.897 0 32.457 14.358 32.457 32.005v77.754l-12.63-12.63v-65.124c0-10.683-8.895-19.375-19.827-19.375h-38.329l-12.63-12.63zm-175.805-41.884 8.38-2.708c23.899-7.723 49.775-1.49 67.532 16.269l68.789 68.789c1.01 1.36 1.01 2.074 0 3.435l-57.622 57.622c-1.36 1.01-2.074 1.01-3.435 0l-57.622-57.622c-.948-.947-.948-2.488 0-3.435l31.88-31.88c4.356-4.357 4.356-11.445 0-15.802l-8.855-8.855c-9.737-9.736-21.815-17.101-34.929-21.296zm-98.071 41.884v12.63h-18.485v-12.63zm-47.138-115.958h13.326l10.041 34.782-10.041 34.783h-13.326l-10.041-34.783zm-14.925 115.958v12.63h-9.621l-3.646-12.63zm-42.862-49.977 33.592 116.365v12.439c0 4.065-.898 8.049-2.667 11.845-5.49 11.77-8.89 26.451-9.763 41.883h-15.511l-2.24-7.758 9.092-2.624c3.866-1.117 6.096-5.156 4.98-9.022s-5.153-6.095-9.022-4.98l-9.092 2.624-7.039-24.385 20.729-5.985c3.867-1.117 6.096-5.156 4.98-9.022s-5.154-6.093-9.021-4.98l-20.729 5.985-7.039-24.385 9.092-2.625c3.866-1.117 6.095-5.156 4.979-9.022s-5.154-6.094-9.022-4.98l-9.092 2.625-7.039-24.385 20.729-5.984c3.866-1.117 6.096-5.156 4.98-9.022s-5.152-6.093-9.021-4.98l-20.729 5.984-9.549-33.078zm-27.876 118.934 12.63 43.751v19.847h-12.63zm-14.573 78.172h468.28c4.018 0 7.287 3.268 7.287 7.287v12.637h-404.225c-4.024 0-7.287 3.262-7.287 7.287s3.262 7.287 7.287 7.287h107.845c-9.673 2.143-18.667 4.861-26.703 8.121-9.379 3.806-17.104 8.228-23.046 13.111h-136.725v-21.232h45.371c4.024 0 7.287-3.262 7.287-7.287s-3.262-7.287-7.287-7.287h-45.371v-12.637c0-4.018 3.269-7.287 7.287-7.287zm117.277 91.535h-124.564v-21.233h124.961c-1.604 3.577-2.426 7.287-2.426 11.088 0 3.469.691 6.86 2.029 10.145zm-124.564 35.807v-21.233h135.604c6.078 5.258 14.187 10.005 24.166 14.054 6.897 2.798 14.495 5.2 22.625 7.179zm241.427-7.955c-61.477 0-104.319-20.025-104.319-37.997 0-17.973 42.842-37.997 104.319-37.997 61.476 0 104.319 20.025 104.319 37.997 0 17.973-42.843 37.997-104.319 37.997zm116.863-27.852c1.338-3.285 2.029-6.676 2.029-10.145 0-3.802-.822-7.511-2.426-11.088h124.961v21.233z"/><path d="m287.703 364.563h-63.406c-4.024 0-7.287 3.262-7.287 7.287s3.262 7.287 7.287 7.287h63.406c4.025 0 7.287-3.262 7.287-7.287s-3.262-7.287-7.287-7.287z"/><path d="m287.703 393.699h-63.406c-4.024 0-7.287 3.262-7.287 7.287s3.262 7.287 7.287 7.287h63.406c4.025 0 7.287-3.262 7.287-7.287s-3.262-7.287-7.287-7.287z"/></g></g></svg>